<?xml version="1.0" encoding="UTF-8"?>
<svg version="1.1" xmlns="http://www.w3.org/2000/svg" width="562" height="598">
<path d="M0 0 C185.46 0 370.92 0 562 0 C562 197.34 562 394.68 562 598 C376.54 598 191.08 598 0 598 C0 400.66 0 203.32 0 0 Z " fill="#DCA483" transform="translate(0,0)"/>
<path d="M0 0 C3.5567002 3.5567002 6.90142106 7.10010257 10.125 10.9375 C10.60090576 11.50178711 11.07681152 12.06607422 11.56713867 12.64746094 C15.36680573 17.18180116 19.02987799 21.81372368 22.66040039 26.48388672 C26.9001157 31.92033801 31.2810899 37.23491155 35.70239258 42.52441406 C36.24532959 43.17764648 36.7882666 43.83087891 37.34765625 44.50390625 C37.90448876 45.1486899 38.46132128 45.79347355 39.0350275 46.4577961 C41 49 41 49 42.77793789 52.22938347 C45.35325237 56.70115267 48.07915862 60.97903938 53.13809514 62.74735689 C59.62738211 63.95962884 66.22492679 63.65728577 72.79516602 63.52001953 C75.01534544 63.52130497 77.23552786 63.52835955 79.45567322 63.54072571 C85.46964871 63.55834288 91.48050552 63.49656948 97.49393582 63.42125559 C103.80402415 63.35673931 110.11395121 63.36849462 116.42430115 63.37277222 C127.02759172 63.37022078 137.62976102 63.32457528 148.23266602 63.24316406 C159.10667293 63.15983254 169.98045657 63.09490822 180.85473633 63.06054688 C181.52353223 63.05842226 182.19232813 63.05629764 182.88139058 63.05410863 C190.20186991 63.03137805 197.52235546 63.01391709 204.84285641 62.99961662 C206.13202656 62.99707504 207.42119671 62.99453346 208.74943262 62.99191487 C211.3221831 62.98689029 213.89493396 62.98205559 216.46768516 62.97741592 C223.96304277 62.96162619 231.45788345 62.92405754 238.95303833 62.86705518 C243.63552047 62.83343111 248.31801457 62.81169309 253.00057411 62.79208946 C255.1559186 62.78022073 257.31124223 62.76307354 259.46649551 62.73996544 C286.81033523 62.45155736 309.90046611 67.3634151 330.48974609 86.51025391 C345.62868559 101.44362099 352.30613252 121.26051981 352.5 142.0625 C352.29306181 164.23937551 343.57800929 182.35424799 328.69921875 198.49609375 C310.07805164 216.55393144 286.52764759 220.25311214 261.671875 220.4140625 C259.82813687 220.43280851 257.98440701 220.45238437 256.14068604 220.4727478 C251.32730014 220.52371279 246.51388654 220.5635274 241.70037842 220.60089111 C236.77284086 220.64115627 231.84541499 220.69214501 226.91796875 220.7421875 C217.2787247 220.83852391 207.63941706 220.92306173 198 221 C200.03598207 223.99819744 202.07623357 226.99346656 204.1171875 229.98828125 C204.97026489 231.24469421 204.97026489 231.24469421 205.84057617 232.52648926 C209.47263799 237.8506737 213.21840613 243.061654 217.125 248.1875 C221.51842409 253.97145076 225.7059001 259.85489095 229.7878418 265.86230469 C233.78275128 271.72673203 237.92466447 277.47665531 242.09350586 283.21826172 C245.76916157 288.28457399 249.40085889 293.37908237 253 298.5 C257.08024634 304.30400113 261.20867597 310.07000037 265.375 315.8125 C270.58542777 322.9971426 275.68980941 330.25087487 280.76464844 337.53173828 C285.19417512 343.87597153 289.70232196 350.15913413 294.24609375 356.421875 C298.37511062 362.11810996 302.43922096 367.85749806 306.48535156 373.61279297 C310.0743202 378.70950448 313.71440386 383.76705183 317.375 388.8125 C322.58482314 395.99630888 327.68948453 403.24861466 332.76245117 410.52954102 C336.68168481 416.14454978 340.66255598 421.71037599 344.6875 427.25 C348.96374188 433.14149359 353.17868786 439.07005895 357.3125 445.0625 C357.7871167 445.74795898 358.2617334 446.43341797 358.75073242 447.13964844 C362 451.8771721 362 451.8771721 362 453 C242.54 453 123.08 453 0 453 C0 303.51 0 154.02 0 0 Z " fill="#FEFEFE" transform="translate(0,145)"/>
<path d="M0 0 C158.07 0 316.14 0 479 0 C479.0928125 74.8378125 479.0928125 74.8378125 479.1875 151.1875 C479.21481201 166.89883545 479.24212402 182.6101709 479.27026367 198.79760742 C479.28381348 218.0904541 479.28381348 218.0904541 479.28633118 227.14302063 C479.2891085 233.42011449 479.30002584 239.6971266 479.31672668 245.97419739 C479.33602823 253.23968732 479.3444607 260.50509993 479.34033485 267.7706156 C479.33855267 271.47523536 479.34107022 275.17968308 479.35764539 278.88427007 C479.67299749 353.12673907 459.26512674 427.69678471 409 484 C407.89978516 485.26457031 407.89978516 485.26457031 406.77734375 486.5546875 C397.33075474 497.28710986 387.29059945 507.21489874 376 516 C374.56140625 517.16402344 374.56140625 517.16402344 373.09375 518.3515625 C360.4720401 528.39155901 346.76485714 536.70497438 332.5625 544.3125 C331.66853516 544.79904053 330.77457031 545.28558105 329.85351562 545.78686523 C329.01626953 546.22458252 328.17902344 546.6622998 327.31640625 547.11328125 C326.20954468 547.69783081 326.20954468 547.69783081 325.08032227 548.29418945 C322.53495359 549.15778068 321.44851663 549.0917452 319 548 C317.52709961 546.38037109 317.52709961 546.38037109 316.15234375 544.2734375 C315.63534912 543.49661621 315.11835449 542.71979492 314.58569336 541.91943359 C314.04178955 541.07977051 313.49788574 540.24010742 312.9375 539.375 C311.77291281 537.62361547 310.60621898 535.87363005 309.4375 534.125 C308.85742188 533.25359375 308.27734375 532.3821875 307.6796875 531.484375 C305.35514402 528.04621302 302.91517087 524.70373057 300.4375 521.375 C296.3622202 515.87145033 292.34229257 510.33201911 288.375 504.75 C287.85349365 504.02216309 287.3319873 503.29432617 286.79467773 502.54443359 C286.07260132 501.52470459 286.07260132 501.52470459 285.3359375 500.484375 C284.69470947 499.58283691 284.69470947 499.58283691 284.04052734 498.66308594 C283 497 283 497 282 494 C282.86612915 493.62415771 282.86612915 493.62415771 283.74975586 493.24072266 C301.42937788 485.51891092 317.93101512 477.17736886 333 465 C333.52013672 464.58137695 334.04027344 464.16275391 334.57617188 463.73144531 C347.66131864 453.13608938 359.0532287 441.60038294 369 428 C369.40927734 427.44570313 369.81855469 426.89140625 370.24023438 426.3203125 C393.87177022 393.89830196 405.81145384 355.36114188 411 316 C411.1045752 315.22930176 411.20915039 314.45860352 411.31689453 313.66455078 C412.30745768 305.3129871 412.24374886 296.89836009 412.25 288.5 C412.25067474 287.68319763 412.25134949 286.86639526 412.25204468 286.02484131 C412.17381536 226.08656297 392.53968105 168.89511836 350.1875 125.75 C327.683332 103.41764036 299.22679548 87.30498445 269 78 C268.30696777 77.78150391 267.61393555 77.56300781 266.89990234 77.33789062 C236.26534083 67.79563397 204.64058183 66.71279811 172.80086589 66.59528303 C169.02797304 66.5793358 165.25515398 66.55265207 161.48231506 66.5272522 C154.38227467 66.48101001 147.2822195 66.4440075 140.18210846 66.41057932 C130.55637717 66.36470301 120.93073877 66.30403642 111.30508518 66.24433136 C96.20343739 66.15103907 81.10175959 66.07706014 66 66 C66 91.41 66 116.82 66 143 C44.22 143 22.44 143 0 143 C0 95.81 0 48.62 0 0 Z " fill="#00B3AB" transform="translate(83,0)"/>
<path d="M0 0 C33.34852176 -0.08060607 33.34852176 -0.08060607 47.47851562 -0.09765625 C57.17946523 -0.10945711 66.88037973 -0.12321862 76.58129883 -0.15087891 C83.65095713 -0.17102678 90.72058655 -0.18376623 97.79027277 -0.18817699 C101.52185401 -0.19074882 105.25335278 -0.19664312 108.98490715 -0.21146011 C176.77807042 -0.46966232 238.40034592 13.99535219 288 62.625 C329.65080969 104.44941674 347.25193497 163.64868172 347.375 221.5625 C347.34389724 236.19635055 346.51072919 250.55894392 344 265 C343.83902832 265.9384375 343.67805664 266.876875 343.51220703 267.84375 C335.63278381 311.92613314 315.78687467 351.68993663 285 384 C284.27425781 384.77859375 283.54851562 385.5571875 282.80078125 386.359375 C265.28027258 404.62474818 241.74927626 419.34004291 218 428 C217.01 428 216.02 428 215 428 C213.68823242 426.57324219 213.68823242 426.57324219 212.35546875 424.546875 C211.85088135 423.792854 211.34629395 423.03883301 210.82641602 422.26196289 C210.28557373 421.43301514 209.74473145 420.60406738 209.1875 419.75 C208.01416342 417.99272614 206.83964637 416.23624001 205.6640625 414.48046875 C205.05852539 413.57087402 204.45298828 412.6612793 203.82910156 411.72412109 C200.96687153 407.46133909 198.01708714 403.26156224 195.0625 399.0625 C193.89576081 397.39979047 192.72909468 395.73702968 191.5625 394.07421875 C190.97984375 393.2445459 190.3971875 392.41487305 189.796875 391.56005859 C186.71426607 387.16817853 183.63879573 382.77130325 180.5625 378.375 C179.45966766 376.7994566 178.35680415 375.22393501 177.25390625 373.6484375 C176.72941895 372.8965918 176.20493164 372.14474609 175.66455078 371.37011719 C174.46414814 369.6608903 173.25281367 367.95932259 172.03466797 366.26269531 C171.39287598 365.36389648 170.75108398 364.46509766 170.08984375 363.5390625 C169.49937256 362.71873535 168.90890137 361.8984082 168.30053711 361.05322266 C167 359 167 359 167 357 C167.969375 356.6596875 168.93875 356.319375 169.9375 355.96875 C208.65741648 342.09630827 237.98369941 316.05198507 255.76318359 278.75537109 C263.42847526 261.67868698 267.19221369 243.65481515 268 225 C268.061875 223.83404297 268.061875 223.83404297 268.125 222.64453125 C269.08025246 187.9569262 255.90642714 154.47902242 234 128 C233.54512207 127.44731445 233.09024414 126.89462891 232.62158203 126.32519531 C209.17789494 98.28185168 173.55640852 82.1314011 137.70031929 78.21800423 C132.33741875 77.78504247 126.96320122 77.81984053 121.58569336 77.79467773 C120.26764709 77.78477814 118.94960083 77.77487854 117.59161377 77.76467896 C114.00343703 77.73783376 110.41524742 77.71671494 106.82702708 77.69667697 C103.06740569 77.67469042 99.30782306 77.64736418 95.54823303 77.62062073 C88.44056941 77.57086406 81.33288408 77.52586265 74.2251783 77.48259836 C64.61229472 77.42380774 54.99946226 77.35761319 45.38662434 77.29184818 C30.25778408 77.18854009 15.12889943 77.09507398 0 77 C0 51.59 0 26.18 0 0 Z " fill="#FEFEFE" transform="translate(149,66)"/>
<path d="M0 0 C21.78 0 43.56 0 66 0 C66 93.06 66 186.12 66 282 C105.93 282 145.86 282 187 282 C200.72057509 300.29410012 200.72057509 300.29410012 205.125 306.625 C206.12600623 308.05229087 207.12731286 309.47937111 208.12890625 310.90625 C208.85231201 311.93878906 208.85231201 311.93878906 209.59033203 312.9921875 C211.73438565 316.04599716 213.89527646 319.08760337 216.0625 322.125 C216.45759766 322.67978027 216.85269531 323.23456055 217.25976562 323.80615234 C219.49834354 326.93816593 221.7682372 330.04422235 224.06640625 333.1328125 C224.5761499 333.81972168 225.08589355 334.50663086 225.61108398 335.21435547 C226.60240395 336.54730594 227.59786224 337.87719105 228.59790039 339.20361328 C232 343.77878692 232 343.77878692 232 346 C219.0646681 347.87888705 206.3910907 348.27630348 193.33374023 348.22705078 C191.17902413 348.22643667 189.02430763 348.22670755 186.86959171 348.2277813 C181.15013999 348.22822893 175.43077361 348.21671977 169.71134186 348.20256042 C164.32517761 348.19108778 158.9390331 348.19062971 153.55285645 348.18920898 C137.84772653 348.178755 122.14261215 348.15083247 106.4375 348.125 C71.313125 348.08375 36.18875 348.0425 0 348 C0 233.16 0 118.32 0 0 Z " fill="#00B3AB" transform="translate(83,227)"/>
<path d="M0 0 C0.33 0 0.66 0 1 0 C1 96.36 1 192.72 1 292 C-40.25 292 -81.5 292 -124 292 C-128.29 285.73 -132.58 279.46 -137 273 C-139.27621001 269.79721157 -141.5538548 266.60618262 -143.875 263.4375 C-144.94962036 261.95732274 -146.02384219 260.47685606 -147.09765625 258.99609375 C-147.84233154 257.97104736 -147.84233154 257.97104736 -148.60205078 256.92529297 C-150.51533506 254.29026681 -152.42190979 251.65139111 -154.3125 249 C-155.11107422 247.88625 -155.11107422 247.88625 -155.92578125 246.75 C-157 245 -157 245 -157 243 C-156.33693848 242.6690332 -155.67387695 242.33806641 -154.99072266 241.99707031 C-140.68587478 234.81622942 -127.01313534 227.33005561 -114 218 C-112.98268799 217.28360352 -112.98268799 217.28360352 -111.94482422 216.55273438 C-101.10963099 208.89582995 -91.48657834 200.25584523 -82 191 C-81.03039299 190.06984832 -80.06038533 189.14011398 -79.08984375 188.2109375 C-73.23235765 182.50735752 -68.04980409 176.42307268 -63 170 C-62.22011719 169.03707031 -61.44023437 168.07414063 -60.63671875 167.08203125 C-22.9675427 119.68014942 -4.01007519 59.86864175 0 0 Z " fill="#FEFEFE" transform="translate(561,306)"/>
<path d="M0 0 C92.07 0 184.14 0 279 0 C279 89.1 279 178.2 279 270 C278.67 270 278.34 270 278 270 C277.90295776 268.84105225 277.90295776 268.84105225 277.80395508 267.65869141 C272.11747614 201.53934063 250.51312788 137.96615251 205.1328125 88.35546875 C203.30504283 86.33688796 201.55653806 84.27771647 199.8125 82.1875 C155.16005607 31.30210623 84.22866481 6.68739873 18.47363281 1.734375 C12.31816194 1.36011661 6.16519853 1.12938507 0 1 C0 0.67 0 0.34 0 0 Z " fill="#FEFEFE" transform="translate(283,0)"/>
<path d="M0 0 C27.39 0 54.78 0 83 0 C83 47.19 83 94.38 83 143 C55.61 143 28.22 143 0 143 C0 95.81 0 48.62 0 0 Z " fill="#FEFEFE" transform="translate(0,0)"/>
</svg>
