<?xml version="1.0" encoding="UTF-8"?>
<svg version="1.1" xmlns="http://www.w3.org/2000/svg" width="1268" height="598">
<path d="M0 0 C418.44 0 836.88 0 1268 0 C1268 197.34 1268 394.68 1268 598 C849.56 598 431.12 598 0 598 C0 400.66 0 203.32 0 0 Z " fill="#FEFEFE" transform="translate(0,0)"/>
<path d="M0 0 C300.14640918 0 300.14640918 0 320.4375 2.75 C321.08610992 2.83614563 321.73471985 2.92229126 322.40298462 3.01104736 C341.74139668 5.59615638 360.47837084 9.88053572 379 16 C379.7616748 16.24943359 380.52334961 16.49886719 381.30810547 16.75585938 C413.97546525 27.6333282 444.54359303 45.23824151 469.671875 68.82421875 C471.66897354 70.69063466 473.71022326 72.44296363 475.8125 74.1875 C497.49923072 93.17445403 514.78146806 118.55294333 528 144 C528.42635742 144.82000488 528.85271484 145.64000977 529.29199219 146.48486328 C567.64230206 221.23897702 571.50295726 309.21418755 546.2265625 388.63671875 C534.71404653 423.70694872 516.61908443 456.43275149 492 484 C491.24332031 484.86625 490.48664063 485.7325 489.70703125 486.625 C486.59955678 490.14497108 483.5277175 493.57682881 479.99609375 496.67578125 C474.4741629 501.43245702 474.4741629 501.43245702 471.1640625 507.75390625 C470.89611314 514.99884479 472.91454793 523.34425111 477.6484375 528.953125 C484.19987742 534.84656004 490.57694885 535.53771266 499.1953125 535.31640625 C505.9782201 534.75232461 512.50551371 532.41377668 517.62109375 527.75 C523.70086583 520.03402864 526.08207916 511.72895703 526.20532227 502.09838867 C526.22017166 501.08779892 526.22017166 501.08779892 526.23532104 500.05679321 C526.26674923 497.8438867 526.291619 495.63095876 526.31640625 493.41796875 C526.33699194 491.87811241 526.35798883 490.33826151 526.37937927 488.79841614 C526.43443318 484.75595525 526.48391564 480.71344478 526.53222656 476.67089844 C526.58256379 472.54162206 526.63818591 468.41241721 526.69335938 464.28320312 C526.80073678 456.18886106 526.90173791 448.09445785 527 440 C532.61 440 538.22 440 544 440 C544 475.97 544 511.94 544 549 C538.39 549 532.78 549 527 549 C526.67 543.72 526.34 538.44 526 533 C524.989375 534.19625 523.97875 535.3925 522.9375 536.625 C514.44802578 546.21590301 505.6213724 551.30026383 492.5625 552.25 C481.38252242 552.038258 471.17108455 549.32362822 463.26171875 541.21875 C459.54849305 536.72233774 457.634445 531.93781362 455.859375 526.41796875 C455.03599659 523.78963401 455.03599659 523.78963401 453 521 C452.18716553 521.5576001 452.18716553 521.5576001 451.35791016 522.12646484 C439.23556618 530.40968367 427.028868 538.2169787 414 545 C413.26861816 545.3825293 412.53723633 545.76505859 411.78369141 546.15917969 C411.06745605 546.52688477 410.3512207 546.89458984 409.61328125 547.2734375 C408.96786377 547.60520996 408.32244629 547.93698242 407.6574707 548.27880859 C406 549 406 549 404 549 C410.02183899 557.79925861 416.07812128 566.57374755 422.1875 575.3125 C422.78079102 576.16150879 423.37408203 577.01051758 423.98535156 577.88525391 C427.81950913 583.35667151 431.71982235 588.76645893 435.7421875 594.1015625 C437 596 437 596 437 598 C292.79 598 148.58 598 0 598 C0 400.66 0 203.32 0 0 Z " fill="#DCA483" transform="translate(0,0)"/>
<path d="M0 0 C3.5567002 3.5567002 6.90142106 7.10010257 10.125 10.9375 C10.60090576 11.50178711 11.07681152 12.06607422 11.56713867 12.64746094 C15.36680573 17.18180116 19.02987799 21.81372368 22.66040039 26.48388672 C26.9001157 31.92033801 31.2810899 37.23491155 35.70239258 42.52441406 C36.24532959 43.17764648 36.7882666 43.83087891 37.34765625 44.50390625 C37.90448876 45.1486899 38.46132128 45.79347355 39.0350275 46.4577961 C41 49 41 49 42.77793789 52.22938347 C45.35325237 56.70115267 48.07915862 60.97903938 53.13809514 62.74735689 C59.62738211 63.95962884 66.22492679 63.65728577 72.79516602 63.52001953 C75.01534544 63.52130497 77.23552786 63.52835955 79.45567322 63.54072571 C85.46964871 63.55834288 91.48050552 63.49656948 97.49393582 63.42125559 C103.80402415 63.35673931 110.11395121 63.36849462 116.42430115 63.37277222 C127.02759172 63.37022078 137.62976102 63.32457528 148.23266602 63.24316406 C159.10667293 63.15983254 169.98045657 63.09490822 180.85473633 63.06054688 C181.52353223 63.05842226 182.19232813 63.05629764 182.88139058 63.05410863 C190.20186991 63.03137805 197.52235546 63.01391709 204.84285641 62.99961662 C206.13202656 62.99707504 207.42119671 62.99453346 208.74943262 62.99191487 C211.3221831 62.98689029 213.89493396 62.98205559 216.46768516 62.97741592 C223.96304277 62.96162619 231.45788345 62.92405754 238.95303833 62.86705518 C243.63552047 62.83343111 248.31801457 62.81169309 253.00057411 62.79208946 C255.1559186 62.78022073 257.31124223 62.76307354 259.46649551 62.73996544 C286.81033523 62.45155736 309.90046611 67.3634151 330.48974609 86.51025391 C345.62868559 101.44362099 352.30613252 121.26051981 352.5 142.0625 C352.29306181 164.23937551 343.57800929 182.35424799 328.69921875 198.49609375 C310.07805164 216.55393144 286.52764759 220.25311214 261.671875 220.4140625 C259.82813687 220.43280851 257.98440701 220.45238437 256.14068604 220.4727478 C251.32730014 220.52371279 246.51388654 220.5635274 241.70037842 220.60089111 C236.77284086 220.64115627 231.84541499 220.69214501 226.91796875 220.7421875 C217.2787247 220.83852391 207.63941706 220.92306173 198 221 C200.03598207 223.99819744 202.07623357 226.99346656 204.1171875 229.98828125 C204.97026489 231.24469421 204.97026489 231.24469421 205.84057617 232.52648926 C209.47263799 237.8506737 213.21840613 243.061654 217.125 248.1875 C221.51842409 253.97145076 225.7059001 259.85489095 229.7878418 265.86230469 C233.78275128 271.72673203 237.92466447 277.47665531 242.09350586 283.21826172 C245.76916157 288.28457399 249.40085889 293.37908237 253 298.5 C257.08024634 304.30400113 261.20867597 310.07000037 265.375 315.8125 C270.58542777 322.9971426 275.68980941 330.25087487 280.76464844 337.53173828 C285.19417512 343.87597153 289.70232196 350.15913413 294.24609375 356.421875 C298.37511062 362.11810996 302.43922096 367.85749806 306.48535156 373.61279297 C310.0743202 378.70950448 313.71440386 383.76705183 317.375 388.8125 C322.58482314 395.99630888 327.68948453 403.24861466 332.76245117 410.52954102 C336.68168481 416.14454978 340.66255598 421.71037599 344.6875 427.25 C348.96374188 433.14149359 353.17868786 439.07005895 357.3125 445.0625 C357.7871167 445.74795898 358.2617334 446.43341797 358.75073242 447.13964844 C362 451.8771721 362 451.8771721 362 453 C242.54 453 123.08 453 0 453 C0 303.51 0 154.02 0 0 Z " fill="#FEFEFE" transform="translate(0,145)"/>
<path d="M0 0 C49.26822027 -0.04030303 49.26822027 -0.04030303 70.01953125 -0.04882812 C84.31006227 -0.05474637 98.60058737 -0.06167853 112.89111328 -0.07543945 C123.30189626 -0.08545957 133.71267441 -0.09187074 144.12346208 -0.09408849 C149.62723221 -0.09538325 155.13098852 -0.09838978 160.63475418 -0.10573006 C165.83362195 -0.11260636 171.03247043 -0.11459381 176.23134232 -0.11310768 C178.121695 -0.11337887 180.01204845 -0.11531419 181.90239716 -0.11920547 C200.47323447 -0.15550143 219.01447451 0.25317415 237.4375 2.75 C238.08610992 2.83614563 238.73471985 2.92229126 239.40298462 3.01104736 C258.74139668 5.59615638 277.47837084 9.88053572 296 16 C296.7616748 16.24943359 297.52334961 16.49886719 298.30810547 16.75585938 C330.97546525 27.6333282 361.54359303 45.23824151 386.671875 68.82421875 C388.66897354 70.69063466 390.71022326 72.44296363 392.8125 74.1875 C414.49923072 93.17445403 431.78146806 118.55294333 445 144 C445.42635742 144.82000488 445.85271484 145.64000977 446.29199219 146.48486328 C484.64230206 221.23897702 488.50295726 309.21418755 463.2265625 388.63671875 C451.71404653 423.70694872 433.61908443 456.43275149 409 484 C408.24332031 484.86625 407.48664063 485.7325 406.70703125 486.625 C403.59955678 490.14497108 400.5277175 493.57682881 396.99609375 496.67578125 C391.4741629 501.43245702 391.4741629 501.43245702 388.1640625 507.75390625 C387.89611314 514.99884479 389.91454793 523.34425111 394.6484375 528.953125 C401.19987742 534.84656004 407.57694885 535.53771266 416.1953125 535.31640625 C422.9782201 534.75232461 429.50551371 532.41377668 434.62109375 527.75 C440.70086583 520.03402864 443.08207916 511.72895703 443.20532227 502.09838867 C443.21522186 501.42466217 443.22512146 500.75093567 443.23532104 500.05679321 C443.26674923 497.8438867 443.291619 495.63095876 443.31640625 493.41796875 C443.33699194 491.87811241 443.35798883 490.33826151 443.37937927 488.79841614 C443.43443318 484.75595525 443.48391564 480.71344478 443.53222656 476.67089844 C443.58256379 472.54162206 443.63818591 468.41241721 443.69335938 464.28320312 C443.80073678 456.18886106 443.90173791 448.09445785 444 440 C449.61 440 455.22 440 461 440 C461 475.97 461 511.94 461 549 C455.39 549 449.78 549 444 549 C443.67 543.72 443.34 538.44 443 533 C441.989375 534.19625 440.97875 535.3925 439.9375 536.625 C431.44802578 546.21590301 422.6213724 551.30026383 409.5625 552.25 C398.38252242 552.038258 388.17108455 549.32362822 380.26171875 541.21875 C376.54849305 536.72233774 374.634445 531.93781362 372.859375 526.41796875 C372.03599659 523.78963401 372.03599659 523.78963401 370 521 C369.18716553 521.5576001 369.18716553 521.5576001 368.35791016 522.12646484 C356.86996721 529.97619634 345.32973941 537.49652834 332.99365234 543.95410156 C331.6042585 544.68299738 330.22496666 545.43133824 328.85400391 546.19433594 C328.15581543 546.57106445 327.45762695 546.94779297 326.73828125 547.3359375 C326.11606689 547.67931152 325.49385254 548.02268555 324.8527832 548.37646484 C322.44145451 549.18797275 321.33008254 549.00295366 319 548 C317.52709961 546.38037109 317.52709961 546.38037109 316.15234375 544.2734375 C315.63534912 543.49661621 315.11835449 542.71979492 314.58569336 541.91943359 C314.04178955 541.07977051 313.49788574 540.24010742 312.9375 539.375 C311.77291281 537.62361547 310.60621898 535.87363005 309.4375 534.125 C308.85742188 533.25359375 308.27734375 532.3821875 307.6796875 531.484375 C305.35514402 528.04621302 302.91517087 524.70373057 300.4375 521.375 C296.3622202 515.87145033 292.34229257 510.33201911 288.375 504.75 C287.85349365 504.02216309 287.3319873 503.29432617 286.79467773 502.54443359 C286.07260132 501.52470459 286.07260132 501.52470459 285.3359375 500.484375 C284.69470947 499.58283691 284.69470947 499.58283691 284.04052734 498.66308594 C283 497 283 497 282 494 C282.86612915 493.62415771 282.86612915 493.62415771 283.74975586 493.24072266 C301.42937788 485.51891092 317.93101512 477.17736886 333 465 C333.52013672 464.58137695 334.04027344 464.16275391 334.57617188 463.73144531 C347.66131864 453.13608938 359.0532287 441.60038294 369 428 C369.40927734 427.44570313 369.81855469 426.89140625 370.24023438 426.3203125 C393.87177022 393.89830196 405.81145384 355.36114188 411 316 C411.1045752 315.22930176 411.20915039 314.45860352 411.31689453 313.66455078 C412.30745768 305.3129871 412.24374886 296.89836009 412.25 288.5 C412.25067474 287.68319763 412.25134949 286.86639526 412.25204468 286.02484131 C412.17381536 226.08656297 392.53968105 168.89511836 350.1875 125.75 C327.683332 103.41764036 299.22679548 87.30498445 269 78 C268.30696777 77.78150391 267.61393555 77.56300781 266.89990234 77.33789062 C236.26534083 67.79563397 204.64058183 66.71279811 172.80086589 66.59528303 C169.02797304 66.5793358 165.25515398 66.55265207 161.48231506 66.5272522 C154.38227467 66.48101001 147.2822195 66.4440075 140.18210846 66.41057932 C130.55637717 66.36470301 120.93073877 66.30403642 111.30508518 66.24433136 C96.20343739 66.15103907 81.10175959 66.07706014 66 66 C66 91.41 66 116.82 66 143 C44.22 143 22.44 143 0 143 C0 95.81 0 48.62 0 0 Z " fill="#00B3AB" transform="translate(83,0)"/>
<path d="M0 0 C33.34852176 -0.08060607 33.34852176 -0.08060607 47.47851562 -0.09765625 C57.17946523 -0.10945711 66.88037973 -0.12321862 76.58129883 -0.15087891 C83.65095713 -0.17102678 90.72058655 -0.18376623 97.79027277 -0.18817699 C101.52185401 -0.19074882 105.25335278 -0.19664312 108.98490715 -0.21146011 C176.77807042 -0.46966232 238.40034592 13.99535219 288 62.625 C329.65080969 104.44941674 347.25193497 163.64868172 347.375 221.5625 C347.34389724 236.19635055 346.51072919 250.55894392 344 265 C343.83902832 265.9384375 343.67805664 266.876875 343.51220703 267.84375 C335.63278381 311.92613314 315.78687467 351.68993663 285 384 C284.27425781 384.77859375 283.54851562 385.5571875 282.80078125 386.359375 C265.28027258 404.62474818 241.74927626 419.34004291 218 428 C217.01 428 216.02 428 215 428 C213.68823242 426.57324219 213.68823242 426.57324219 212.35546875 424.546875 C211.85088135 423.792854 211.34629395 423.03883301 210.82641602 422.26196289 C210.28557373 421.43301514 209.74473145 420.60406738 209.1875 419.75 C208.01416342 417.99272614 206.83964637 416.23624001 205.6640625 414.48046875 C205.05852539 413.57087402 204.45298828 412.6612793 203.82910156 411.72412109 C200.96687153 407.46133909 198.01708714 403.26156224 195.0625 399.0625 C193.89576081 397.39979047 192.72909468 395.73702968 191.5625 394.07421875 C190.97984375 393.2445459 190.3971875 392.41487305 189.796875 391.56005859 C186.71426607 387.16817853 183.63879573 382.77130325 180.5625 378.375 C179.45966766 376.7994566 178.35680415 375.22393501 177.25390625 373.6484375 C176.72941895 372.8965918 176.20493164 372.14474609 175.66455078 371.37011719 C174.46414814 369.6608903 173.25281367 367.95932259 172.03466797 366.26269531 C171.39287598 365.36389648 170.75108398 364.46509766 170.08984375 363.5390625 C169.49937256 362.71873535 168.90890137 361.8984082 168.30053711 361.05322266 C167 359 167 359 167 357 C167.969375 356.6596875 168.93875 356.319375 169.9375 355.96875 C208.65741648 342.09630827 237.98369941 316.05198507 255.76318359 278.75537109 C263.42847526 261.67868698 267.19221369 243.65481515 268 225 C268.061875 223.83404297 268.061875 223.83404297 268.125 222.64453125 C269.08025246 187.9569262 255.90642714 154.47902242 234 128 C233.54512207 127.44731445 233.09024414 126.89462891 232.62158203 126.32519531 C209.17789494 98.28185168 173.55640852 82.1314011 137.70031929 78.21800423 C132.33741875 77.78504247 126.96320122 77.81984053 121.58569336 77.79467773 C120.26764709 77.78477814 118.94960083 77.77487854 117.59161377 77.76467896 C114.00343703 77.73783376 110.41524742 77.71671494 106.82702708 77.69667697 C103.06740569 77.67469042 99.30782306 77.64736418 95.54823303 77.62062073 C88.44056941 77.57086406 81.33288408 77.52586265 74.2251783 77.48259836 C64.61229472 77.42380774 54.99946226 77.35761319 45.38662434 77.29184818 C30.25778408 77.18854009 15.12889943 77.09507398 0 77 C0 51.59 0 26.18 0 0 Z " fill="#FEFEFE" transform="translate(149,66)"/>
<path d="M0 0 C21.78 0 43.56 0 66 0 C66 93.06 66 186.12 66 282 C105.93 282 145.86 282 187 282 C200.72057509 300.29410012 200.72057509 300.29410012 205.125 306.625 C206.12600623 308.05229087 207.12731286 309.47937111 208.12890625 310.90625 C208.85231201 311.93878906 208.85231201 311.93878906 209.59033203 312.9921875 C211.73438565 316.04599716 213.89527646 319.08760337 216.0625 322.125 C216.45759766 322.67978027 216.85269531 323.23456055 217.25976562 323.80615234 C219.49834354 326.93816593 221.7682372 330.04422235 224.06640625 333.1328125 C224.5761499 333.81972168 225.08589355 334.50663086 225.61108398 335.21435547 C226.60240395 336.54730594 227.59786224 337.87719105 228.59790039 339.20361328 C232 343.77878692 232 343.77878692 232 346 C219.0646681 347.87888705 206.3910907 348.27630348 193.33374023 348.22705078 C191.17902413 348.22643667 189.02430763 348.22670755 186.86959171 348.2277813 C181.15013999 348.22822893 175.43077361 348.21671977 169.71134186 348.20256042 C164.32517761 348.19108778 158.9390331 348.19062971 153.55285645 348.18920898 C137.84772653 348.178755 122.14261215 348.15083247 106.4375 348.125 C71.313125 348.08375 36.18875 348.0425 0 348 C0 233.16 0 118.32 0 0 Z " fill="#DDA483" transform="translate(83,227)"/>
<path d="M0 0 C27.39 0 54.78 0 83 0 C83 47.19 83 94.38 83 143 C55.61 143 28.22 143 0 143 C0 95.81 0 48.62 0 0 Z " fill="#FEFEFE" transform="translate(0,0)"/>
<path d="M0 0 C29.75681565 -0.64261869 29.75681565 -0.64261869 44.51046944 -0.80406189 C52.47452502 -0.89256088 60.43588486 -1.00468974 68.39794922 -1.20703125 C74.70463612 -1.36722701 81.00928556 -1.46989106 87.31795049 -1.50541592 C90.6566199 -1.52617666 93.98488267 -1.5828887 97.32253265 -1.69168091 C117.61505033 -2.32655601 117.61505033 -2.32655601 123.28367233 1.56962204 C127.05828468 5.26604904 129.67866422 9.43939435 132.04141712 14.13760185 C133.27717862 16.53852094 134.81084728 18.64514828 136.4453125 20.7890625 C137.34092416 22.06604067 138.23424333 23.3446305 139.125 24.625 C140.12600623 26.05229087 141.12731286 27.47937111 142.12890625 28.90625 C142.85231201 29.93878906 142.85231201 29.93878906 143.59033203 30.9921875 C145.73438565 34.04599716 147.89527646 37.08760337 150.0625 40.125 C150.45759766 40.67978027 150.85269531 41.23456055 151.25976562 41.80615234 C153.49834354 44.93816593 155.7682372 48.04422235 158.06640625 51.1328125 C158.5761499 51.81972168 159.08589355 52.50663086 159.61108398 53.21435547 C160.60240395 54.54730594 161.59786224 55.87719105 162.59790039 57.20361328 C166 61.77878692 166 61.77878692 166 64 C155.08727914 65.47859423 144.42126307 66.28810149 133.39233398 66.22705078 C131.92186491 66.22648441 130.45139527 66.22680762 128.98092651 66.22793579 C125.05018877 66.22850149 121.11957713 66.21687659 117.18886828 66.20278788 C113.05829711 66.19014751 108.92772193 66.18909967 104.7971344 66.18673706 C97.00261875 66.1805609 89.20816029 66.16420332 81.41366965 66.14403808 C70.86166016 66.11734085 60.30963465 66.10667516 49.75759983 66.09503365 C33.17169052 66.07631919 16.5859018 66.03644808 0 66 C0 44.22 0 22.44 0 0 Z " fill="#00B3AB" transform="translate(149,509)"/>
<path d="M0 0 C12.29128613 10.12930095 17.60188428 23.4117342 19.3984375 38.9765625 C20.57042422 58.58820976 18.58997316 76.10788723 5.6484375 91.7890625 C-3.54191262 101.46311526 -15.35405468 105.12013358 -28.35546875 106.32421875 C-41.63207023 106.65941286 -54.99218905 102.92062062 -64.9453125 93.765625 C-77.74598584 79.93848258 -81.4946966 62.57355645 -80.87890625 44.20703125 C-80.05363176 29.31442225 -76.19633508 14.84408343 -65.625 3.72265625 C-47.38654025 -12.0159374 -19.94490449 -14.0752329 0 0 Z " fill="#020202" transform="translate(1046.6015625,446.0234375)"/>
<path d="M0 0 C0.98226563 0.83144531 0.98226563 0.83144531 1.984375 1.6796875 C2.68046875 2.25460937 3.3765625 2.82953125 4.09375 3.421875 C12.92467129 11.42282248 16.99061382 22.16017848 18.984375 33.6796875 C18.984375 40.2796875 18.984375 46.8796875 18.984375 53.6796875 C-8.075625 53.6796875 -35.135625 53.6796875 -63.015625 53.6796875 C-61.08770619 66.21115977 -59.40288205 76.22690364 -49.16796875 84.28125 C-37.05541262 92.15111405 -21.50190456 92.72141789 -7.58203125 89.92578125 C-1.15474555 88.24823995 5.03925852 86.06617039 11.12890625 83.4140625 C12.984375 82.6796875 12.984375 82.6796875 14.984375 82.6796875 C14.984375 87.9596875 14.984375 93.2396875 14.984375 98.6796875 C-7.67815598 106.74231871 -30.00314444 110.82612919 -53 101.46484375 C-64.90509992 95.6636298 -73.31923604 85.95761905 -78.015625 73.6796875 C-84.25321202 54.79434499 -83.62923526 36.49551743 -75.328125 18.3671875 C-68.65530394 6.03157536 -58.92639084 -1.53689675 -45.9765625 -6.48046875 C-31.15786054 -10.77429749 -12.63213959 -9.54533856 0 0 Z " fill="#030303" transform="translate(1248.015625,445.3203125)"/>
<path d="M0 0 C5.94 0 11.88 0 18 0 C18.01401855 3.36699097 18.01401855 3.36699097 18.02832031 6.80200195 C18.06222744 14.25402354 18.11785188 21.7057722 18.18390274 29.15757465 C18.22325687 33.67155126 18.25550408 38.18533632 18.27099609 42.69946289 C18.28624273 47.06340219 18.32082827 51.42681443 18.36830902 55.79051781 C18.38304082 57.4476581 18.39103626 59.10487368 18.39188385 60.76207924 C18.18332579 75.85876755 18.18332579 75.85876755 24.74957275 88.98750305 C31.14397898 94.95409332 37.69966324 95.53456154 46.1953125 95.31640625 C52.9782201 94.75232461 59.50551371 92.41377668 64.62109375 87.75 C70.70086583 80.03402864 73.08207916 71.72895703 73.20532227 62.09838867 C73.21522186 61.42466217 73.22512146 60.75093567 73.23532104 60.05679321 C73.26674923 57.8438867 73.291619 55.63095876 73.31640625 53.41796875 C73.33699194 51.87811241 73.35798883 50.33826151 73.37937927 48.79841614 C73.43443318 44.75595525 73.48391564 40.71344478 73.53222656 36.67089844 C73.58256379 32.54162206 73.63818591 28.41241721 73.69335938 24.28320312 C73.80073678 16.18886106 73.90173791 8.09445785 74 0 C79.61 0 85.22 0 91 0 C91 35.97 91 71.94 91 109 C85.39 109 79.78 109 74 109 C73.67 103.72 73.34 98.44 73 93 C71.4840625 94.794375 71.4840625 94.794375 69.9375 96.625 C61.44802578 106.21590301 52.6213724 111.30026383 39.5625 112.25 C28.38252242 112.038258 18.17108455 109.32362822 10.26171875 101.21875 C-0.07220775 88.70521122 -0.29878605 72.22958988 -0.1953125 56.8359375 C-0.19157531 55.19113335 -0.18873168 53.54632696 -0.18673706 51.90151978 C-0.17915617 47.6042042 -0.15955632 43.30702707 -0.1373291 39.00976562 C-0.11675022 34.61199821 -0.10770977 30.21420809 -0.09765625 25.81640625 C-0.07630434 17.21086735 -0.04116842 8.60546693 0 0 Z " fill="#000101" transform="translate(453,440)"/>
<path d="M0 0 C9.33483129 6.97136763 14.1659319 17.28214114 15.8671875 28.65625 C17.3423666 44.32223651 15.62114703 58.2051854 7.14453125 71.6015625 C3.23154648 76.18972896 -1.81070548 80.43262744 -7.85546875 81.6015625 C-17.82947289 82.3936814 -25.5908702 82.18148951 -33.98046875 76.4765625 C-42.90245315 68.28191378 -46.64878167 57.49854465 -47.23828125 45.6640625 C-47.67408167 29.98115264 -47.05879762 15.72391444 -35.85546875 3.6015625 C-25.80848926 -4.71434958 -11.57462142 -6.87183162 0 0 Z " fill="#FCFCFC" transform="translate(1031.85546875,455.3984375)"/>
<path d="M0 0 C0.8755957 0.11754639 1.75119141 0.23509277 2.65332031 0.35620117 C8.14421468 1.17522993 12.93102659 2.56474681 18.0625 4.6875 C18.0625 9.9675 18.0625 15.2475 18.0625 20.6875 C16.845625 20.254375 15.62875 19.82125 14.375 19.375 C12.60773424 18.80138978 10.83652226 18.23986037 9.0625 17.6875 C8.15371094 17.40132813 7.24492188 17.11515625 6.30859375 16.8203125 C-0.70715039 14.89944383 -7.45296492 14.37530419 -14.6875 14.3125 C-15.56245117 14.29872314 -16.43740234 14.28494629 -17.33886719 14.27075195 C-24.69203076 14.3228774 -31.23758926 15.38132624 -36.9375 20.25 C-40.69687304 24.83173589 -40.41006463 28.93493441 -39.9375 34.6875 C-38.35699356 39.23145602 -35.6984598 40.60456944 -31.47021484 42.65722656 C-26.40236964 44.71875604 -21.06012377 45.85563597 -15.75 47.125 C14.17051453 54.29714815 14.17051453 54.29714815 22.0625 66.875 C25.03155363 75.22546334 25.50377769 85.21049514 22.20703125 93.53515625 C16.68374192 103.92195632 7.28285327 108.760061 -3.39453125 112.5625 C-21.21143968 117.05573085 -41.74772124 112.84443363 -58.9375 107.6875 C-58.9375 101.7475 -58.9375 95.8075 -58.9375 89.6875 C-57.720625 90.1 -56.50375 90.5125 -55.25 90.9375 C-43.72016245 94.77468841 -33.42951036 97.87763385 -21.25 98 C-20.30705078 98.02900391 -19.36410156 98.05800781 -18.39257812 98.08789062 C-10.63139806 98.1572345 -2.59561784 96.75574464 3.1875 91.125 C5.84457472 86.25369634 5.79325505 82.11833863 5.0625 76.6875 C3.74494213 72.81717377 2.02872233 71.50961682 -1.48046875 69.71875 C-5.93928666 67.55167401 -10.44739822 66.29199189 -15.25 65.125 C-16.08668213 64.91157959 -16.92336426 64.69815918 -17.78540039 64.47827148 C-21.2490557 63.59515518 -24.71749635 62.73973108 -28.1953125 61.9140625 C-39.00976526 59.23409607 -49.18964328 54.96569599 -55.1875 45.1875 C-58.8334089 37.89568221 -58.90683958 29.28700513 -57.1875 21.375 C-54.47814084 13.38239047 -49.01757645 7.59683456 -41.734375 3.42578125 C-28.28382382 -2.8997402 -14.38124369 -1.97243628 0 0 Z " fill="#020202" transform="translate(632.9375,438.3125)"/>
<path d="M0 0 C0 5.28 0 10.56 0 16 C-1.258125 15.566875 -2.51625 15.13375 -3.8125 14.6875 C-4.64652344 14.41679687 -5.48054687 14.14609375 -6.33984375 13.8671875 C-8.02876299 13.31661471 -9.70994267 12.74120316 -11.37890625 12.1328125 C-22.40007541 8.51083203 -36.88548399 7.84083606 -47.640625 12.6171875 C-57.08461136 18.15223911 -61.94143098 25.27873578 -65.10546875 35.609375 C-68.61323241 50.36653155 -67.05847336 66.90354698 -59.25 79.875 C-54.00370839 87.13302749 -47.59552104 90.8534961 -39 93 C-35.92226983 93.40698347 -32.91429199 93.47680805 -29.8125 93.4375 C-28.99241455 93.43282715 -28.1723291 93.4281543 -27.32739258 93.42333984 C-19.73518166 93.24146392 -13.15440214 91.56920863 -6 89 C-4.02 88.34 -2.04 87.68 0 87 C0 92.28 0 97.56 0 103 C-11.40930145 107.02681228 -21.84969185 109.69562833 -34 109 C-35.24007812 108.93167969 -36.48015625 108.86335937 -37.7578125 108.79296875 C-52.10493618 107.67993528 -64.37351942 102.02137311 -74 91 C-84.25137589 77.09447279 -87.92534325 58.8337442 -85.71582031 41.81054688 C-83.2153079 26.27116949 -77.76077101 12.93190852 -64.7265625 3.32421875 C-58.26910005 -0.8867155 -51.4114201 -3.04169794 -44 -5 C-43.32195313 -5.1959375 -42.64390625 -5.391875 -41.9453125 -5.59375 C-28.44515708 -8.41305956 -12.61426298 -4.73034862 0 0 Z " fill="#020202" transform="translate(942,443)"/>
<path d="M0 0 C5.61 0 11.22 0 17 0 C17 10.23 17 20.46 17 31 C29.21 31 41.42 31 54 31 C54 35.62 54 40.24 54 45 C41.79 45 29.58 45 17 45 C17.09105071 56.4865121 17.09105071 56.4865121 17.20898438 67.97265625 C17.26310614 72.66419394 17.31422283 77.35561733 17.34643555 82.04736328 C17.37263515 85.83419095 17.41315185 89.62063006 17.46318626 93.40721512 C17.47974333 94.84468338 17.49132655 96.28221867 17.49761391 97.71976852 C17.34838685 109.7401162 17.34838685 109.7401162 21 121 C24.99966397 124.00940137 28.56928875 124.39450688 33.4921875 124.51171875 C35.29042969 124.56489258 35.29042969 124.56489258 37.125 124.61914062 C38.3625 124.64169922 39.6 124.66425781 40.875 124.6875 C42.13570312 124.72166016 43.39640625 124.75582031 44.6953125 124.79101562 C47.79656722 124.87324586 50.89826879 124.93830576 54 125 C54 129.95 54 134.9 54 140 C49.56212223 140.08156753 45.12577129 140.14078135 40.6875 140.1875 C39.44419922 140.21263672 38.20089844 140.23777344 36.91992188 140.26367188 C26.01887749 140.34950687 15.68062168 139.13785717 7 132 C-1.33450891 122.9897201 -0.4210748 108.36803503 -0.29296875 96.85546875 C-0.28735673 95.3494764 -0.28309425 93.84347848 -0.28010559 92.33747864 C-0.26878291 88.41987336 -0.23942825 84.50261465 -0.20599365 80.58514404 C-0.17501748 76.56918014 -0.16154209 72.55315892 -0.14648438 68.53710938 C-0.11454294 60.69123176 -0.06188219 52.84570906 0 45 C-4.29 45 -8.58 45 -13 45 C-13 40.38 -13 35.76 -13 31 C-8.71 31 -4.42 31 0 31 C0 20.77 0 10.54 0 0 Z " fill="#000000" transform="translate(686,409)"/>
<path d="M0 0 C0 5.61 0 11.22 0 17 C-1.98 16.67 -3.96 16.34 -6 16 C-16.83920988 15.13853362 -25.88487365 15.21429483 -35 22 C-41.81733242 28.47782384 -44.69395535 37.91685721 -45.15821838 47.14485168 C-45.17376266 48.32399643 -45.18930695 49.50314117 -45.20532227 50.71801758 C-45.22017166 51.69934662 -45.22017166 51.69934662 -45.23532104 52.70050049 C-45.26673914 54.84847478 -45.29161492 56.99647113 -45.31640625 59.14453125 C-45.33699282 60.63954725 -45.35798973 62.13455765 -45.37937927 63.62956238 C-45.43442415 67.55365448 -45.48391053 71.47779758 -45.53222656 75.40197754 C-45.58257044 79.41060901 -45.63818907 83.41916694 -45.69335938 87.42773438 C-45.80072571 95.28509561 -45.90173015 103.14251973 -46 111 C-51.94 111 -57.88 111 -64 111 C-64 75.03 -64 39.06 -64 2 C-58.06 2 -52.12 2 -46 2 C-45.67 6.95 -45.34 11.9 -45 17 C-43.700625 15.453125 -42.40125 13.90625 -41.0625 12.3125 C-30.19542534 0.29079866 -15.68407073 -3.13681415 0 0 Z " fill="#050505" transform="translate(1159,438)"/>
<path d="M0 0 C7.08007653 4.91270617 11.7068858 10.61580119 14 19 C14.495 24.445 14.495 24.445 15 30 C-6.12 30 -27.24 30 -49 30 C-49 19.63818487 -46.74088296 12.62299186 -39.625 5 C-29.99891695 -3.75098459 -11.41307591 -7.34406624 0 0 Z " fill="#FCFCFC" transform="translate(1235,455)"/>
<path d="M0 0 C34.32 0 68.64 0 104 0 C104 4.62 104 9.24 104 14 C69.68 14 35.36 14 0 14 C0 9.38 0 4.76 0 0 Z " fill="#010101" transform="translate(743,582)"/>
</svg>
