<?xml version="1.0" encoding="UTF-8"?>
<svg version="1.1" xmlns="http://www.w3.org/2000/svg" width="1268" height="598">
<path d="M0 0 C49.26822027 -0.04030303 49.26822027 -0.04030303 70.01953125 -0.04882812 C84.31006227 -0.05474637 98.60058737 -0.06167853 112.89111328 -0.07543945 C123.30189626 -0.08545957 133.71267441 -0.09187074 144.12346208 -0.09408849 C149.62723221 -0.09538325 155.13098852 -0.09838978 160.63475418 -0.10573006 C165.83362195 -0.11260636 171.03247043 -0.11459381 176.23134232 -0.11310768 C178.121695 -0.11337887 180.01204845 -0.11531419 181.90239716 -0.11920547 C200.47323447 -0.15550143 219.01447451 0.25317415 237.4375 2.75 C238.08610992 2.83614563 238.73471985 2.92229126 239.40298462 3.01104736 C258.74139668 5.59615638 277.47837084 9.88053572 296 16 C296.7616748 16.24943359 297.52334961 16.49886719 298.30810547 16.75585938 C330.97546525 27.6333282 361.54359303 45.23824151 386.671875 68.82421875 C388.66897354 70.69063466 390.71022326 72.44296363 392.8125 74.1875 C414.49923072 93.17445403 431.78146806 118.55294333 445 144 C445.42635742 144.82000488 445.85271484 145.64000977 446.29199219 146.48486328 C484.64230206 221.23897702 488.50295726 309.21418755 463.2265625 388.63671875 C451.71404653 423.70694872 433.61908443 456.43275149 409 484 C408.24332031 484.86625 407.48664063 485.7325 406.70703125 486.625 C405.97871094 487.45 405.25039063 488.275 404.5 489.125 C403.43845703 490.32962891 403.43845703 490.32962891 402.35546875 491.55859375 C400 494 400 494 396.92578125 496.53515625 C390.90994045 501.51451682 390.90994045 501.51451682 388.609375 508.75 C389.54562811 516.88571672 391.4442987 524.53547053 397.4375 530.375 C404.64335671 534.94456767 412.71438119 535.05445752 421 534 C427.98813193 531.86473747 433.66470206 528.02522865 437.37109375 521.63671875 C440.86733791 514.95126603 442.1084513 509.66816288 442.20532227 502.09838867 C442.22017166 501.08779892 442.22017166 501.08779892 442.23532104 500.05679321 C442.26674923 497.8438867 442.291619 495.63095876 442.31640625 493.41796875 C442.33699194 491.87811241 442.35798883 490.33826151 442.37937927 488.79841614 C442.43443318 484.75595525 442.48391564 480.71344478 442.53222656 476.67089844 C442.58256379 472.54162206 442.63818591 468.41241721 442.69335938 464.28320312 C442.80073678 456.18886106 442.90173791 448.09445785 443 440 C449.27 440 455.54 440 462 440 C462 475.97 462 511.94 462 549 C455.73 549 449.46 549 443 549 C442.67 544.71 442.34 540.42 442 536 C441.05125 537.19625 440.1025 538.3925 439.125 539.625 C433.04469468 546.56688704 425.05026462 551.31481195 415.74414062 552.21923828 C403.2200883 552.82417937 392.3813739 552.57435556 382.1875 544.5 C375.49084628 538.07937322 372.35719004 529.78190336 370 521 C369.18716553 521.5576001 369.18716553 521.5576001 368.35791016 522.12646484 C356.23556618 530.40968367 344.028868 538.2169787 331 545 C330.26861816 545.3825293 329.53723633 545.76505859 328.78369141 546.15917969 C328.06745605 546.52688477 327.3512207 546.89458984 326.61328125 547.2734375 C325.96786377 547.60520996 325.32244629 547.93698242 324.6574707 548.27880859 C323 549 323 549 321 549 C327.02183899 557.79925861 333.07812128 566.57374755 339.1875 575.3125 C339.78079102 576.16150879 340.37408203 577.01051758 340.98535156 577.88525391 C344.81950913 583.35667151 348.71982235 588.76645893 352.7421875 594.1015625 C354 596 354 596 354 598 C344.44707212 598.41926466 334.89735822 598.73791915 325.33720112 598.93261909 C320.89619402 599.02613498 316.46152585 599.1525969 312.02416992 599.35791016 C283.44190377 600.64618452 283.44190377 600.64618452 276.16842651 596.31314087 C271.87021852 592.30458446 269.34876428 587.72956709 267.09005737 582.35943604 C265.23975561 578.35444623 262.56748282 574.95757374 259.9375 571.4375 C258.94124405 570.03151985 257.9485568 568.62299777 256.9609375 567.2109375 C256.47206055 566.51581055 255.98318359 565.82068359 255.47949219 565.10449219 C254.49316406 563.7014974 253.50683594 562.2985026 252.52050781 560.89550781 C246.3566527 552.13121284 240.14258119 543.40724456 233.85571289 534.73071289 C229.69551172 528.98212768 225.59622342 523.19285249 221.51513672 517.38793945 C217.92604319 512.29095671 214.28576844 507.23318566 210.625 502.1875 C205.41457223 495.0028574 200.31019059 487.74912513 195.23535156 480.46826172 C190.80640607 474.12486089 186.29816516 467.84303824 181.75610352 461.58032227 C175.59435728 453.07731883 169.55962135 444.48579803 163.52050781 435.89550781 C157.3566527 427.13121284 151.14258119 418.40724456 144.85571289 409.73071289 C140.7047104 403.99483846 136.61147285 398.22041849 132.54370117 392.42529297 C129.85810306 388.60682667 127.14446321 384.81152705 124.39453125 381.0390625 C123.79705078 380.21857422 123.19957031 379.39808594 122.58398438 378.55273438 C121.42589821 376.96563283 120.26457036 375.38089031 119.09960938 373.79882812 C118.57818359 373.08404297 118.05675781 372.36925781 117.51953125 371.6328125 C117.05651611 371.00262207 116.59350098 370.37243164 116.11645508 369.72314453 C115 368 115 368 114 365 C115.52857384 364.99120064 115.52857384 364.99120064 117.08802795 364.98222351 C126.75201175 364.92469092 136.41577709 364.8517737 146.07953739 364.76428509 C151.04625346 364.71980124 156.01289163 364.68049839 160.97973633 364.65356445 C165.78450626 364.62730996 170.58897279 364.5867561 175.39355278 364.53681374 C177.21486029 364.52029323 179.03622009 364.50868772 180.85759163 364.50238609 C205.50614487 364.4085852 228.0765854 359.14762311 246.58984375 341.59765625 C255.00257991 332.53044467 260.85406016 322.65789023 265 311 C265.33902344 310.10796875 265.67804688 309.2159375 266.02734375 308.296875 C271.76903536 290.1986397 268.87613775 268.38375144 260.6875 251.5625 C257.65645217 245.85737999 254.17986302 240.90546272 250 236 C248.9171875 234.515 248.9171875 234.515 247.8125 233 C235.30342214 218.33838602 214.69842086 210.51177803 196 209 C188.57288875 208.69306628 181.13356563 208.86216974 173.703125 208.95092773 C171.4775075 208.96949201 169.25188006 208.98689548 167.02624512 209.00323486 C162.2584586 209.03899757 157.49074547 209.07957777 152.72302246 209.12295341 C145.1738003 209.18820702 137.62464531 209.22170756 130.07519531 209.24708557 C128.15824671 209.25364069 128.15824671 209.25364069 126.20257187 209.26032823 C122.27046551 209.27346475 118.33835794 209.28617482 114.40625 209.29882812 C109.03775393 209.31627231 103.66926489 209.3347815 98.30078125 209.35571289 C97.29537505 209.35961239 97.29537505 209.35961239 96.26965761 209.36359067 C85.40276089 209.40741095 74.53694441 209.50545772 63.670609 209.62152111 C52.47618489 209.73965056 41.28247939 209.79125992 30.08736801 209.7871967 C23.81581197 209.78723195 17.54774229 209.81748379 11.27697754 209.92147636 C5.37879938 210.01870269 -0.51429992 210.03564515 -6.41307068 209.99264526 C-8.5682113 209.99090609 -10.72361164 210.01794247 -12.87794495 210.07695198 C-28.689067 210.48652532 -28.689067 210.48652532 -34.23957825 206.31806684 C-38.35043914 202.29744644 -41.62115945 197.79820175 -44.71868134 192.97045243 C-46.33558108 190.48393279 -48.16331418 188.21301527 -50.0625 185.9375 C-50.66578125 185.17824219 -51.2690625 184.41898438 -51.890625 183.63671875 C-54.11915988 180.85105015 -56.37051813 178.08494009 -58.62475586 175.32006836 C-63.91834226 168.82732728 -69.16387209 162.30297644 -74.30981445 155.69238281 C-76.42198084 152.98373834 -78.57126449 150.32822142 -80.8125 147.7265625 C-83 145 -83 145 -83 143 C-55.61 143 -28.22 143 0 143 C0 95.81 0 48.62 0 0 Z M66 66 C66 91.41 66 116.82 66 143 C75.50167969 143.03738281 85.00335938 143.07476562 94.79296875 143.11328125 C100.84962338 143.14359392 106.90625969 143.17464507 112.96289062 143.20898438 C122.55442551 143.26323049 132.14590966 143.31465202 141.73754883 143.34643555 C148.72667825 143.36960917 155.71567161 143.40321718 162.70469266 143.44870156 C166.39588776 143.47237668 170.08695028 143.49127175 173.77821922 143.49761391 C193.46385182 143.53582192 213.45384351 143.59484839 232.375 149.75 C233.1889624 150.00458984 234.0029248 150.25917969 234.84155273 150.52148438 C242.56689296 153.02364339 249.78875351 156.29208957 257 160 C257.92554688 160.44730469 258.85109375 160.89460938 259.8046875 161.35546875 C278.63469359 170.88222257 294.79255295 185.9648284 307 203 C307.59723877 203.83289551 307.59723877 203.83289551 308.20654297 204.68261719 C330.56535213 236.42556386 338.03287478 275.262758 331.609375 313.31396484 C327.42205471 335.12777112 318.09347679 356.76065786 304 374 C303.55398438 374.54994629 303.10796875 375.09989258 302.6484375 375.66650391 C285.373182 396.83908476 260.42266144 417.02674701 233 423 C234.59480015 427.81221672 237.30701006 431.50348063 240.25 435.5625 C241.34164978 437.08818121 242.43277438 438.6142383 243.5234375 440.140625 C244.09416992 440.93662109 244.66490234 441.73261719 245.25292969 442.55273438 C248.15585188 446.61909716 251.0144665 450.71626106 253.875 454.8125 C255.04936505 456.49226728 256.22384534 458.17195402 257.3984375 459.8515625 C257.9872168 460.69364258 258.57599609 461.53572266 259.18261719 462.40332031 C261.04902898 465.07005269 262.91864681 467.73451213 264.7890625 470.3984375 C265.41055176 471.28426514 266.03204102 472.17009277 266.67236328 473.08276367 C267.84961581 474.76057655 269.02761749 476.43786416 270.20654297 478.11450195 C273.88369907 483.35826035 277.470545 488.6557374 281 494 C299.67519392 490.64209526 318.52769965 477.69142532 333 466 C333.51481934 465.58669434 334.02963867 465.17338867 334.56005859 464.74755859 C347.99390544 453.90012502 359.82234847 441.96288815 370 428 C370.40782715 427.44715332 370.8156543 426.89430664 371.23583984 426.32470703 C394.8704576 393.90200606 406.8111405 355.36351891 412 316 C412.1045752 315.22930176 412.20915039 314.45860352 412.31689453 313.66455078 C413.30745768 305.3129871 413.24374886 296.89836009 413.25 288.5 C413.25067474 287.68319763 413.25134949 286.86639526 413.25204468 286.02484131 C413.17333149 225.71582587 393.28680338 168.59384227 350.6875 125.25 C342.72231416 117.34161818 334.20801018 110.40681118 325 104 C324.04456299 103.33411865 324.04456299 103.33411865 323.06982422 102.65478516 C306.60972404 91.38453795 288.04038148 82.86137071 269 77 C268.30696777 76.78150391 267.61393555 76.56300781 266.89990234 76.33789062 C236.24547628 66.78944643 204.66186209 65.67070072 172.80086589 65.79721212 C169.02802354 65.80996795 165.25517565 65.81090906 161.48231506 65.81326294 C154.3822157 65.81940645 147.28218011 65.83571744 140.18210846 65.85596192 C130.55644949 65.88279446 120.93077228 65.89335137 111.30508518 65.90496635 C96.20334263 65.92360587 81.10173445 65.96349789 66 66 Z " fill="#00B3AA" transform="translate(83,0)"/>
<path d="M0 0 C35.82245064 -0.06881991 71.64488959 -0.12160658 107.46739284 -0.15319599 C111.70637073 -0.15694765 115.94534848 -0.16083066 120.18432617 -0.16479492 C121.02815225 -0.16558185 121.87197832 -0.16636878 122.74137489 -0.16717956 C136.36511266 -0.18019721 149.98881207 -0.20383075 163.61252715 -0.23145839 C177.61460982 -0.25961434 191.61667253 -0.27619768 205.61878234 -0.28226548 C214.24352201 -0.28636091 222.86815317 -0.29924722 231.4928594 -0.3237494 C237.42481531 -0.33973274 243.35671596 -0.34437222 249.28869178 -0.34050413 C252.69993301 -0.33860191 256.1108359 -0.34299816 259.52206802 -0.35761642 C278.31092872 -0.43412002 297.32630336 -0.12133584 315.375 5.75 C316.5959436 6.13188477 316.5959436 6.13188477 317.84155273 6.52148438 C325.56689296 9.02364339 332.78875351 12.29208957 340 16 C340.92554688 16.44730469 341.85109375 16.89460938 342.8046875 17.35546875 C361.99522868 27.06462979 378.58393038 42.61074943 391 60 C391.39670898 60.55381348 391.79341797 61.10762695 392.20214844 61.67822266 C414.56427123 93.42194013 422.03333953 132.26000496 415.609375 170.31396484 C411.4216533 192.12986225 402.09172756 213.75717057 388 231 C387.55930176 231.54462891 387.11860352 232.08925781 386.66455078 232.65039062 C369.25335648 254.04145493 346.52747692 271.50187611 320 280 C318.68 280 317.36 280 316 280 C323.091688 290.83574688 330.55356705 301.40685494 338 312 C344.9277176 321.86034444 351.83709214 331.73020822 358.625 341.6875 C364.17211979 349.82333146 369.82155733 357.8816233 375.52050781 365.91162109 C377.00500152 368.0070599 378.4838834 370.10634291 379.9609375 372.20703125 C385.06848672 379.46804273 390.21897836 386.69328302 395.4375 393.875 C400.42623221 400.7493719 405.26629479 407.71316443 410.04345703 414.73583984 C414.09268727 420.68585366 418.18616927 426.60318872 422.3125 432.5 C422.899104 433.33885742 423.48570801 434.17771484 424.09008789 435.04199219 C427.89022564 440.46011727 431.75785464 445.81690343 435.7421875 451.1015625 C437 453 437 453 437 455 C427.44707212 455.41926466 417.89735822 455.73791915 408.33720112 455.93261909 C403.89619402 456.02613498 399.46152585 456.1525969 395.02416992 456.35791016 C366.44190377 457.64618452 366.44190377 457.64618452 359.16842651 453.31314087 C354.87021852 449.30458446 352.34876428 444.72956709 350.09005737 439.35943604 C348.23975561 435.35444623 345.56748282 431.95757374 342.9375 428.4375 C341.94124405 427.03151985 340.9485568 425.62299777 339.9609375 424.2109375 C339.22762207 423.16824707 339.22762207 423.16824707 338.47949219 422.10449219 C337.49316406 420.7014974 336.50683594 419.2985026 335.52050781 417.89550781 C329.3566527 409.13121284 323.14258119 400.40724456 316.85571289 391.73071289 C312.69551172 385.98212768 308.59622342 380.19285249 304.51513672 374.38793945 C300.92604319 369.29095671 297.28576844 364.23318566 293.625 359.1875 C288.41457223 352.0028574 283.31019059 344.74912513 278.23535156 337.46826172 C273.80640607 331.12486089 269.29816516 324.84303824 264.75610352 318.58032227 C258.59435728 310.07731883 252.55962135 301.48579803 246.52050781 292.89550781 C240.3566527 284.13121284 234.14258119 275.40724456 227.85571289 266.73071289 C223.7047104 260.99483846 219.61147285 255.22041849 215.54370117 249.42529297 C212.85810306 245.60682667 210.14446321 241.81152705 207.39453125 238.0390625 C206.79705078 237.21857422 206.19957031 236.39808594 205.58398438 235.55273438 C204.42589821 233.96563283 203.26457036 232.38089031 202.09960938 230.79882812 C201.57818359 230.08404297 201.05675781 229.36925781 200.51953125 228.6328125 C200.05651611 228.00262207 199.59350098 227.37243164 199.11645508 226.72314453 C198 225 198 225 197 222 C198.52857384 221.99120064 198.52857384 221.99120064 200.08802795 221.98222351 C209.75201175 221.92469092 219.41577709 221.8517737 229.07953739 221.76428509 C234.04625346 221.71980124 239.01289163 221.68049839 243.97973633 221.65356445 C248.78450626 221.62730996 253.58897279 221.5867561 258.39355278 221.53681374 C260.21486029 221.52029323 262.03622009 221.50868772 263.85759163 221.50238609 C288.50614487 221.4085852 311.0765854 216.14762311 329.58984375 198.59765625 C338.00257991 189.53044467 343.85406016 179.65789023 348 168 C348.33902344 167.10796875 348.67804688 166.2159375 349.02734375 165.296875 C354.76903536 147.1986397 351.87613775 125.38375144 343.6875 108.5625 C340.65645217 102.85737999 337.17986302 97.90546272 333 93 C332.278125 92.01 331.55625 91.02 330.8125 90 C318.30342214 75.33838602 297.69842086 67.51177803 279 66 C271.57288875 65.69306628 264.13356563 65.86216974 256.703125 65.95092773 C254.4775075 65.96949201 252.25188006 65.98689548 250.02624512 66.00323486 C245.2584586 66.03899757 240.49074547 66.07957777 235.72302246 66.12295341 C228.1738003 66.18820702 220.62464531 66.22170756 213.07519531 66.24708557 C211.15824671 66.25364069 211.15824671 66.25364069 209.20257187 66.26032823 C205.27046551 66.27346475 201.33835794 66.28617482 197.40625 66.29882812 C192.03775393 66.31627231 186.66926489 66.3347815 181.30078125 66.35571289 C180.29537505 66.35961239 180.29537505 66.35961239 179.26965761 66.36359067 C168.40276089 66.40741095 157.53694441 66.50545772 146.670609 66.62152111 C135.47618489 66.73965056 124.28247939 66.79125992 113.08736801 66.7871967 C106.81581197 66.78723195 100.54774229 66.81748379 94.27697754 66.92147636 C88.37879938 67.01870269 82.48570008 67.03564515 76.58692932 66.99264526 C74.4317887 66.99090609 72.27638836 67.01794247 70.12205505 67.07695198 C54.310933 67.48652532 54.310933 67.48652532 48.76042175 63.31806684 C44.64956086 59.29744644 41.37884055 54.79820175 38.28131866 49.97045243 C36.66441892 47.48393279 34.83668582 45.21301527 32.9375 42.9375 C32.33421875 42.17824219 31.7309375 41.41898438 31.109375 40.63671875 C28.88084012 37.85105015 26.62948187 35.08494009 24.37524414 32.32006836 C19.08165774 25.82732728 13.83612791 19.30297644 8.69018555 12.69238281 C6.57801916 9.98373834 4.42873551 7.32822142 2.1875 4.7265625 C0 2 0 2 0 0 Z " fill="#DDA483" transform="translate(0,143)"/>
<path d="M0 0 C21.78 0 43.56 0 66 0 C66 93.06 66 186.12 66 282 C105.93 282 145.86 282 187 282 C200.72057509 300.29410012 200.72057509 300.29410012 205.125 306.625 C206.12600623 308.05229087 207.12731286 309.47937111 208.12890625 310.90625 C208.85231201 311.93878906 208.85231201 311.93878906 209.59033203 312.9921875 C211.73438565 316.04599716 213.89527646 319.08760337 216.0625 322.125 C216.45759766 322.67978027 216.85269531 323.23456055 217.25976562 323.80615234 C219.49834354 326.93816593 221.7682372 330.04422235 224.06640625 333.1328125 C224.5761499 333.81972168 225.08589355 334.50663086 225.61108398 335.21435547 C226.60240395 336.54730594 227.59786224 337.87719105 228.59790039 339.20361328 C232 343.77878692 232 343.77878692 232 346 C219.0646681 347.87888705 206.3910907 348.27630348 193.33374023 348.22705078 C191.17902413 348.22643667 189.02430763 348.22670755 186.86959171 348.2277813 C181.15013999 348.22822893 175.43077361 348.21671977 169.71134186 348.20256042 C164.32517761 348.19108778 158.9390331 348.19062971 153.55285645 348.18920898 C137.84772653 348.178755 122.14261215 348.15083247 106.4375 348.125 C71.313125 348.08375 36.18875 348.0425 0 348 C0 233.16 0 118.32 0 0 Z " fill="#DEA584" transform="translate(83,227)"/>
<path d="M0 0 C29.75681565 -0.64261869 29.75681565 -0.64261869 44.51046944 -0.80406189 C52.47452502 -0.89256088 60.43588486 -1.00468974 68.39794922 -1.20703125 C74.70463612 -1.36722701 81.00928556 -1.46989106 87.31795049 -1.50541592 C90.6566199 -1.52617666 93.98488267 -1.5828887 97.32253265 -1.69168091 C117.61505033 -2.32655601 117.61505033 -2.32655601 123.28367233 1.56962204 C127.05828468 5.26604904 129.67866422 9.43939435 132.04141712 14.13760185 C133.27717862 16.53852094 134.81084728 18.64514828 136.4453125 20.7890625 C137.34092416 22.06604067 138.23424333 23.3446305 139.125 24.625 C140.12600623 26.05229087 141.12731286 27.47937111 142.12890625 28.90625 C142.85231201 29.93878906 142.85231201 29.93878906 143.59033203 30.9921875 C145.73438565 34.04599716 147.89527646 37.08760337 150.0625 40.125 C150.45759766 40.67978027 150.85269531 41.23456055 151.25976562 41.80615234 C153.49834354 44.93816593 155.7682372 48.04422235 158.06640625 51.1328125 C158.5761499 51.81972168 159.08589355 52.50663086 159.61108398 53.21435547 C160.60240395 54.54730594 161.59786224 55.87719105 162.59790039 57.20361328 C166 61.77878692 166 61.77878692 166 64 C155.08727914 65.47859423 144.42126307 66.28810149 133.39233398 66.22705078 C131.92186491 66.22648441 130.45139527 66.22680762 128.98092651 66.22793579 C125.05018877 66.22850149 121.11957713 66.21687659 117.18886828 66.20278788 C113.05829711 66.19014751 108.92772193 66.18909967 104.7971344 66.18673706 C97.00261875 66.1805609 89.20816029 66.16420332 81.41366965 66.14403808 C70.86166016 66.11734085 60.30963465 66.10667516 49.75759983 66.09503365 C33.17169052 66.07631919 16.5859018 66.03644808 0 66 C0 44.22 0 22.44 0 0 Z " fill="#00B4AB" transform="translate(149,509)"/>
<path d="M0 0 C12.24417105 9.54091251 17.33404818 22.42921076 19.25 37.4375 C19.25 43.0475 19.25 48.6575 19.25 54.4375 C-8.14 54.4375 -35.53 54.4375 -63.75 54.4375 C-59.80868216 72.46572368 -59.80868216 72.46572368 -47.96484375 85.1875 C-47.23394531 85.6 -46.50304688 86.0125 -45.75 86.4375 C-45.02941406 86.85 -44.30882812 87.2625 -43.56640625 87.6875 C-29.83385801 94.01545823 -11.49389825 91.3746285 2.25 86.4375 C4.96165876 85.40315594 7.64266626 84.34550471 10.296875 83.171875 C12.25 82.4375 12.25 82.4375 15.25 82.4375 C15.25 88.3775 15.25 94.3175 15.25 100.4375 C11.6303125 101.613125 11.6303125 101.613125 7.9375 102.8125 C6.83474731 103.17674072 6.83474731 103.17674072 5.7097168 103.54833984 C-13.34555506 109.61306317 -37.25284913 111.02214225 -55.51953125 102.08203125 C-69.17579608 94.44516951 -77.39774723 83.45979182 -81.75 68.4375 C-83.10295501 62.60342407 -82.97312747 56.83734285 -83 50.875 C-83.020625 49.75802734 -83.04125 48.64105469 -83.0625 47.49023438 C-83.137121 31.40008209 -78.3359671 17.34785697 -67.1015625 5.625 C-49.50857293 -10.74057169 -19.97795372 -13.21910796 0 0 Z M-55.75 19.4375 C-60.37307385 26.66923643 -61.77677006 31.67843053 -62.75 40.4375 C-41.96 40.4375 -21.17 40.4375 0.25 40.4375 C-0.71029817 29.87422015 -2.11053502 21.24090035 -10.1875 13.875 C-15.94414309 9.24371571 -21.87910241 7.89688126 -29.0625 8 C-29.80943115 8.00829834 -30.5563623 8.01659668 -31.32592773 8.02514648 C-41.21389809 8.32634103 -49.30769415 11.73984119 -55.75 19.4375 Z " fill="#000000" transform="translate(1248.75,444.5625)"/>
<path d="M0 0 C1.50941162 0.01135986 1.50941162 0.01135986 3.04931641 0.02294922 C16.43527392 0.31974096 26.52155596 4.65389715 36.3125 13.75 C48.40254595 26.51016397 51.2433949 45.18175616 50.80078125 62.07421875 C50.11412927 77.31924576 45.86577565 92.10739898 35.3125 103.5625 C22.53555092 115.12364943 7.6487808 116.27256628 -8.72558594 115.62402344 C-20.20349817 114.83458115 -29.61368509 109.55912362 -37.5 101.26953125 C-47.96903151 88.52168039 -50.98043741 74.15279 -50.8125 57.9375 C-50.82410156 56.81730469 -50.83570313 55.69710937 -50.84765625 54.54296875 C-50.7933209 38.84005386 -46.74014935 24.04243782 -35.6953125 12.47265625 C-25.22142503 3.03166079 -13.88736984 -0.14726549 0 0 Z M-21.87109375 25.38671875 C-31.57605327 38.09271313 -32.4354505 54.01239798 -30.46606445 69.33398438 C-28.83958459 80.3455406 -24.85978413 87.93276552 -16.4375 95.4375 C-9.40274905 100.61678533 -0.82803083 100.36463048 7.5625 99.4375 C10.62134463 98.52496797 12.97653748 97.2864632 15.5625 95.4375 C16.42875 94.90125 17.295 94.365 18.1875 93.8125 C27.72275957 84.27724043 30.64190342 71.43985439 30.8125 58.375 C30.71246595 47.13784212 28.95989099 36.83241066 22.5625 27.4375 C21.964375 26.53 21.36625 25.6225 20.75 24.6875 C14.88630805 18.656274 8.76841463 16.28488624 0.4375 16.125 C-8.95418019 16.11487965 -15.45054881 18.42988699 -21.87109375 25.38671875 Z " fill="#000000" transform="translate(1016.4375,436.5625)"/>
<path d="M0 0 C5.94 0 11.88 0 18 0 C18.01981934 1.92602051 18.03963867 3.85204102 18.06005859 5.83642578 C18.12828151 12.25459621 18.20508645 18.6726209 18.28752708 25.09062386 C18.33712492 28.97558261 18.38345265 32.86051884 18.421875 36.74560547 C18.45919603 40.50643508 18.50567074 44.26705741 18.55806351 48.02770615 C18.57636248 49.45071592 18.59155698 50.87376968 18.60334396 52.2968483 C18.26616092 71.04518749 18.26616092 71.04518749 25 88 C30.89881373 93.7475621 36.92616108 94.43552986 44.8293457 94.43823242 C52.55537279 94.23809455 57.77714816 91.50666254 63.8125 86.8125 C69.78292487 79.13623945 72.08211596 71.72608168 72.20532227 62.09838867 C72.21522186 61.42466217 72.22512146 60.75093567 72.23532104 60.05679321 C72.26674923 57.8438867 72.291619 55.63095876 72.31640625 53.41796875 C72.33699194 51.87811241 72.35798883 50.33826151 72.37937927 48.79841614 C72.43443318 44.75595525 72.48391564 40.71344478 72.53222656 36.67089844 C72.58256379 32.54162206 72.63818591 28.41241721 72.69335938 24.28320312 C72.80073678 16.18886106 72.90173791 8.09445785 73 0 C79.27 0 85.54 0 92 0 C92 35.97 92 71.94 92 109 C85.73 109 79.46 109 73 109 C72.67 104.71 72.34 100.42 72 96 C70.576875 97.794375 70.576875 97.794375 69.125 99.625 C63.04469468 106.56688704 55.05026462 111.31481195 45.74414062 112.21923828 C33.2200883 112.82417937 22.3813739 112.57435556 12.1875 104.5 C2.20279462 94.96344118 0.56342236 83.07921253 0 70 C-0.12024597 64.43914996 -0.11774128 58.88214367 -0.09765625 53.3203125 C-0.09578524 51.77090501 -0.09436458 50.22149692 -0.09336853 48.67208862 C-0.08959702 44.64449353 -0.07981433 40.61693599 -0.06866455 36.58935547 C-0.05833331 32.45931506 -0.05384612 28.32926843 -0.04882812 24.19921875 C-0.03818578 16.13279357 -0.02063425 8.06640582 0 0 Z " fill="#000000" transform="translate(453,440)"/>
<path d="M0 0 C1.23379395 0.00725098 2.46758789 0.01450195 3.73876953 0.02197266 C14.66165883 0.18797401 23.81875651 1.91875217 34.1875 5.375 C34.1875 11.315 34.1875 17.255 34.1875 23.375 C29.28460916 22.39442183 24.83423663 20.94631679 20.125 19.3125 C13.85504075 17.31144918 7.96865269 17.15983281 1.4375 17.125 C0.48617187 17.104375 -0.46515625 17.08375 -1.4453125 17.0625 C-9.1755341 17.02014262 -15.81756918 17.86903748 -21.875 22.9375 C-24.47461581 27.5497216 -24.71476522 31.19565063 -23.8125 36.375 C-21.12377049 41.75245902 -16.19971656 43.38387642 -10.8125 45.375 C-5.05301159 46.97917816 0.7841448 48.25732199 6.61914062 49.5546875 C17.43800944 52.09891795 29.56117336 55.77697812 36.1875 65.375 C40.58809829 73.67702423 41.52015929 82.14481782 39.5625 91.296875 C36.61104239 100.83640763 30.94426955 106.15366642 22.25 110.75 C13.0447684 115.28297512 4.00380117 115.76243985 -6.125 115.75 C-7.35089844 115.74983887 -8.57679688 115.74967773 -9.83984375 115.74951172 C-21.58192555 115.60396138 -34.15828164 114.70210918 -44.8125 109.375 C-44.8125 103.105 -44.8125 96.835 -44.8125 90.375 C-41.50403114 91.03669377 -38.69303982 91.67170295 -35.5625 92.75 C-34.7890625 93.01296875 -34.015625 93.2759375 -33.21875 93.546875 C-31.61458333 94.09895833 -30.01041667 94.65104167 -28.40625 95.203125 C-27.6328125 95.46609375 -26.859375 95.7290625 -26.0625 96 C-25.36640625 96.23976563 -24.6703125 96.47953125 -23.953125 96.7265625 C-18.01479465 98.5253998 -12.28338704 98.62562739 -6.125 98.6875 C-5.18205078 98.71650391 -4.23910156 98.74550781 -3.26757812 98.77539062 C4.62981113 98.84595149 11.51117021 97.26354484 17.8125 92.3125 C19.92084091 87.80831715 20.27194204 83.23141437 19.1875 78.375 C15.89803131 73.44079697 13.40099535 71.56143267 7.625 69.8125 C6.9844165 69.61253418 6.34383301 69.41256836 5.68383789 69.20654297 C1.06750873 67.80626193 -3.60602352 66.69922015 -8.30224609 65.60400391 C-20.43809743 62.7548773 -32.01928713 59.74775268 -39.8125 49.375 C-44.61951585 40.96272226 -45.13345828 31.51091745 -42.6875 22.1875 C-39.85942814 13.96393621 -35.23726217 9.14398445 -27.86328125 4.69921875 C-18.66046929 0.70465632 -9.96072781 -0.11489508 0 0 Z " fill="#000000" transform="translate(617.8125,436.625)"/>
<path d="M0 0 C0.99 0.33 1.98 0.66 3 1 C3 6.94 3 12.88 3 19 C-1.72676834 18.05464633 -5.80452363 16.64771007 -10.28125 14.9375 C-20.90904152 11.2727443 -35.49834737 11.13197135 -45.78125 15.765625 C-54.3636017 20.54031362 -58.88587365 27.75409604 -62 37 C-65.8732988 51.9822342 -64.40453195 67.52030161 -56.91015625 81.0625 C-52.70791998 87.52483471 -47.73722222 90.90600565 -40.41015625 93.3046875 C-27.70030861 95.89615701 -13.43968718 94.87969569 -1.80859375 88.8671875 C0 88 0 88 3 88 C3 93.94 3 99.88 3 106 C-16.65034833 112.21592651 -38.53535886 114.9193961 -57.671875 105.71484375 C-70.97878154 98.47669307 -78.32084984 87.07320795 -82.66796875 72.88671875 C-84.33303906 66.48462185 -84.496151 60.27503127 -84.4375 53.6875 C-84.42992676 52.49705078 -84.42235352 51.30660156 -84.41455078 50.08007812 C-84.25254453 41.43816805 -83.50135809 33.99531303 -80 26 C-79.57589844 25.02417969 -79.15179687 24.04835938 -78.71484375 23.04296875 C-72.5974253 10.58660974 -62.2721521 2.57852385 -49.5 -2.375 C-33.72731571 -6.82802356 -15.37740353 -5.19535072 0 0 Z " fill="#000000" transform="translate(940,441)"/>
<path d="M0 0 C6.27 0 12.54 0 19 0 C19 10.23 19 20.46 19 31 C31.21 31 43.42 31 56 31 C56 35.62 56 40.24 56 45 C43.79 45 31.58 45 19 45 C19.12006982 56.53528157 19.12006982 56.53528157 19.2578125 68.0703125 C19.31796341 72.77958041 19.37610828 77.48880965 19.421875 82.19824219 C19.45893172 85.99795202 19.50534492 89.79744595 19.55806351 93.5969696 C19.57649976 95.04168383 19.59164683 96.48644414 19.60334396 97.93122864 C19.25824968 109.94955953 19.25824968 109.94955953 23.3125 120.9296875 C31.65990043 126.22410351 46.34414347 124.6161898 56 125 C56 129.95 56 134.9 56 140 C51.62519896 140.06940049 47.25235724 140.12896628 42.87744141 140.16479492 C41.39365111 140.17975184 39.90990401 140.20012495 38.42626953 140.22631836 C27.36051186 140.41659268 17.01260973 140.29592216 8 133 C1.94601172 126.94601172 0.18265994 118.01718024 -0.12025452 109.69692993 C-0.11803391 108.50224091 -0.11581329 107.30755188 -0.11352539 106.07666016 C-0.11367142 105.4125412 -0.11381744 104.74842224 -0.1139679 104.06417847 C-0.11327634 101.88910551 -0.10551973 99.71412032 -0.09765625 97.5390625 C-0.09578938 96.02306159 -0.09436675 94.50706008 -0.09336853 92.99105835 C-0.08956456 89.01595369 -0.07975253 85.04088602 -0.06866455 81.0657959 C-0.0584047 77.00350444 -0.05386114 72.94120696 -0.04882812 68.87890625 C-0.03812822 60.91925203 -0.02054874 52.95963489 0 45 C-4.29 45 -8.58 45 -13 45 C-13 40.38 -13 35.76 -13 31 C-8.71 31 -4.42 31 0 31 C0 20.77 0 10.54 0 0 Z " fill="#000000" transform="translate(685,409)"/>
<path d="M0 0 C1.37091797 0.0009668 1.37091797 0.0009668 2.76953125 0.00195312 C9.48435163 0.04685163 9.48435163 0.04685163 10.625 1.1875 C10.71131874 2.53017413 10.73206473 3.87724322 10.72265625 5.22265625 C10.71782227 6.43598633 10.71782227 6.43598633 10.71289062 7.67382812 C10.70032227 8.9490332 10.70032227 8.9490332 10.6875 10.25 C10.68298828 11.10400391 10.67847656 11.95800781 10.67382812 12.83789062 C10.66200373 14.95445663 10.64406769 17.07098685 10.625 19.1875 C9.14966797 18.95160156 9.14966797 18.95160156 7.64453125 18.7109375 C-2.06488787 17.3395644 -12.7070941 16.38712171 -21.36328125 21.6484375 C-29.1114347 27.57615101 -32.77425701 35.66331811 -34.375 45.1875 C-34.48757202 47.42505485 -34.55079057 49.6653274 -34.58032227 51.90551758 C-34.59517166 52.88684662 -34.59517166 52.88684662 -34.61032104 53.88800049 C-34.64173914 56.03597478 -34.66661492 58.18397113 -34.69140625 60.33203125 C-34.71199282 61.82704725 -34.73298973 63.32205765 -34.75437927 64.81706238 C-34.80942415 68.74115448 -34.85891053 72.66529758 -34.90722656 76.58947754 C-34.95757044 80.59810901 -35.01318907 84.60666694 -35.06835938 88.61523438 C-35.17572571 96.47259561 -35.27673015 104.33001973 -35.375 112.1875 C-41.645 112.1875 -47.915 112.1875 -54.375 112.1875 C-54.375 76.2175 -54.375 40.2475 -54.375 3.1875 C-48.105 3.1875 -41.835 3.1875 -35.375 3.1875 C-35.045 7.1475 -34.715 11.1075 -34.375 15.1875 C-33.055 13.785 -31.735 12.3825 -30.375 10.9375 C-21.54967589 2.12600869 -12.19138651 -0.16760951 0 0 Z " fill="#000000" transform="translate(1149.375,436.8125)"/>
<path d="M0 0 C34.32 0 68.64 0 104 0 C104 4.62 104 9.24 104 14 C69.68 14 35.36 14 0 14 C0 9.38 0 4.76 0 0 Z " fill="#000000" transform="translate(743,582)"/>
</svg>
